# xmcd CD database file
#
# Track frame offsets:
#	150
#	14162
#	25640
#	38317
#	52607
#	64045
#	75142
#	86892
#	99230
#	112930
#	123355
#	132875
#	144095
#	156697
#	168117
#	177452
#	188720
#	198202
#	210247
#	221707
#
# Disc length: 3092 seconds
#
# Revision: 3
# Processed by: cddbd v1.5.2PL0 Copyright (c) Steve Scherf et al.
# Submitted via: CDex 1.51
#
DISCID=f60c1214
DTITLE=George Jones - Country Gold
DYEAR=1995
DGENRE=Country
TTITLE0=IT'S A GOOD YEAR FOR THE ROSES
TTITLE1=LEAST OF ALL
TTITLE2=SHE'S JUST A GIRL I USED TO KNOW
TTITLE3=IT'S FUNNY WHAT A FOOLWILL DO
TTITLE4=YOU COMB HER HAIR
TTITLE5=TENDER YEARS
TTITLE6=WHITE LIGHTNING
TTITLE7=TAKE ME
TTITLE8=THINGS HAVE GONETO PIECES
TTITLE9=WALK THROUGH THIS WORLD WITH ME
TTITLE10=THE RACE IS ON
TTITLE11=SAY IT'S NOT YOU
TTITLE12=IF MY HEART HAD WINDOWS
TTITLE13=I'LL SHARE MY WORLD WITH YOU
TTITLE14=OLD BRUSH ARBORS
TTITLE15=ONCE A DAY
TTITLE16=THE WORLD'S WORST LOSER
TTITLE17=ACCIDENTALLY ON PURPOSE
TTITLE18=I'M WASTING GOOD PAPER
TTITLE19=DEVELOPING MY PICTURE
EXTD=YEAR: 1995
EXTT0=
EXTT1=
EXTT2=
EXTT3=
EXTT4=
EXTT5=
EXTT6=
EXTT7=
EXTT8=
EXTT9=
EXTT10=
EXTT11=
EXTT12=
EXTT13=
EXTT14=
EXTT15=
EXTT16=
EXTT17=
EXTT18=
EXTT19=
PLAYORDER=
